<svg xmlns="http://www.w3.org/2000/svg" viewBox="40.9 20.4 119.2 119.2">
	<path d="M100.5,20.4c-32.9,0-59.6,26.7-59.6,59.6s26.7,59.6,59.6,59.6s59.6-26.7,59.6-59.6S133.4,20.4,100.5,20.4  L100.5,20.4z M76.2,105.7c-4.1,0-7.4-3.3-7.4-7.5s3.3-7.4,7.5-7.4c4.1,0,7.4,3.3,7.4,7.4C83.7,102.3,80.4,105.7,76.2,105.7z   M102.4,63.6c-4.1,0-7.4-3.3-7.4-7.4s3.3-7.4,7.4-7.4s7.4,3.3,7.4,7.4l0,0C109.8,60.2,106.5,63.5,102.4,63.6z M124.7,105.7  c-4.1,0-7.5-3.3-7.5-7.4s3.3-7.5,7.4-7.5s7.5,3.3,7.5,7.4l0,0C132.1,102.3,128.8,105.7,124.7,105.7z" fill="#000000"/>
</svg>